<svg xmlns="http://www.w3.org/2000/svg" width="103.331" height="77.545" viewBox="0 0 103.331 77.545"><defs><style>.a{fill:none;stroke:rgba(65,77,85,0.3);stroke-width:5px;}.a,.b{stroke-linecap:round;stroke-linejoin:round;}.b{fill:#fff;stroke:#f5692c;stroke-width:4px;}</style></defs><g transform="translate(-637.268 -330.1)"><g transform="translate(640.75 332.6)"><path class="a" d="M10.822,6H73.4a7.845,7.845,0,0,1,7.822,7.822V60.756A7.845,7.845,0,0,1,73.4,68.578H10.822A7.845,7.845,0,0,1,3,60.756V13.822A7.845,7.845,0,0,1,10.822,6Z" transform="translate(-3 -6)"/><path class="a" d="M81.222,9,42.111,36.378,3,9" transform="translate(-3 -1.178)"/></g><g transform="translate(694.79 362.631)"><path class="b" d="M45.981,22.517v1.977A21.49,21.49,0,1,1,33.237,4.852" transform="translate(-3 -2.991)"/><path class="b" d="M41.438,6,19.947,27.512,13.5,21.065" transform="translate(1.543 -1.689)"/></g></g></svg>