<svg xmlns="http://www.w3.org/2000/svg" xmlns:xlink="http://www.w3.org/1999/xlink" width="50.424" height="49.6" viewBox="0 0 50.424 49.6"><defs><style>.a{fill:#fff;}.b{clip-path:url(#a);}.c{fill:#0ba4db;}</style><clipPath id="a"><path class="a" d="M0,0H50.424V49.6H0Z"/></clipPath></defs><g class="b"><path class="c" d="M45.185,0H2.619A2.63,2.63,0,0,0,0,2.624V7.348A2.63,2.63,0,0,0,2.619,9.972H45.054a2.63,2.63,0,0,0,2.619-2.624V2.624A2.443,2.443,0,0,0,45.185,0Zm0,26.375H2.619A2.63,2.63,0,0,0,0,29v4.724a2.63,2.63,0,0,0,2.619,2.624H45.054a2.63,2.63,0,0,0,2.619-2.624V29a2.443,2.443,0,0,0-2.488-2.624Zm-18.6,13.253H2.619A2.63,2.63,0,0,0,0,42.252v4.724A2.63,2.63,0,0,0,2.619,49.6H26.587a2.63,2.63,0,0,0,2.619-2.624V42.252a2.63,2.63,0,0,0-2.619-2.624ZM47.8,13.253H2.619A2.63,2.63,0,0,0,0,15.877V20.6a2.63,2.63,0,0,0,2.619,2.624H47.8A2.63,2.63,0,0,0,50.424,20.6V15.877A2.63,2.63,0,0,0,47.8,13.253Z"/></g></svg>